<svg width="72" height="133" viewBox="0 0 72 133" fill="none" xmlns="http://www.w3.org/2000/svg">
<path d="M0 44.207L15.9821 0C15.8491 0.559006 18.956 2.28299 22.887 3.82999C37.3531 9.52599 52.375 22.224 60.1631 35.34C64.6341 42.868 68.7031 54.505 70.2781 64.271C72.7451 79.56 70.2401 104.709 65.0341 116.935C61.7991 124.53 53.8261 130.996 46.0051 132.366C38.0821 133.754 27.7331 128.783 24.2241 121.903C20.5001 114.603 20.1451 109.632 22.4061 96.435C27.0861 69.122 22.0471 52.999 6.3251 44.978C1.86176 42.7013 0.739456 42.4628 0 44.207Z" fill="black"/>
</svg>
